<svg xmlns="http://www.w3.org/2000/svg" viewBox="0 0 800 600" role="img">
<filter id="g"><feTurbulence type="fractalNoise" baseFrequency="0.9" numOctaves="2" stitchTiles="stitch"/><feColorMatrix type="saturate" values="0"/></filter>
<rect width="800" height="600" fill="#faf8f2"/>
<rect x="0" y="300" width="800" height="300" fill="#0f6e56" opacity="0.35"/>
<rect x="0" y="300" width="800" height="16" fill="#0f6e56" opacity="0.25"/>
<circle cx="690" cy="270" r="70" fill="#d9a441" opacity="0.8"/>
<circle cx="690" cy="270" r="105" fill="#d9a441" opacity="0.25"/>
<path d="M415,600 Q520,430 660,315 L695,330 Q560,455 495,600 Z" fill="#ecc678" opacity="0.55"/>
<path d="M300,600 Q330,430 372,308 L442,308 Q420,440 470,600 Z" fill="#8b6b4f"/>
<path d="M330,600 Q352,440 385,315 L428,315 Q412,445 442,600 Z" fill="#6f5138"/>
<ellipse cx="372" cy="560" rx="8.25" ry="15.0" fill="#16132a" opacity="0.5"/>
<ellipse cx="402" cy="540" rx="8.25" ry="15.0" fill="#16132a" opacity="0.5"/>
<ellipse cx="376" cy="516" rx="7.370000000000001" ry="13.4" fill="#16132a" opacity="0.5"/>
<ellipse cx="404" cy="496" rx="7.370000000000001" ry="13.4" fill="#16132a" opacity="0.5"/>
<ellipse cx="380" cy="472" rx="6.490000000000001" ry="11.8" fill="#16132a" opacity="0.5"/>
<ellipse cx="406" cy="452" rx="6.490000000000001" ry="11.8" fill="#16132a" opacity="0.5"/>
<ellipse cx="384" cy="428" rx="5.61" ry="10.2" fill="#16132a" opacity="0.5"/>
<ellipse cx="408" cy="408" rx="5.61" ry="10.2" fill="#16132a" opacity="0.5"/>
<ellipse cx="388" cy="384" rx="4.73" ry="8.6" fill="#16132a" opacity="0.5"/>
<ellipse cx="410" cy="364" rx="4.73" ry="8.6" fill="#16132a" opacity="0.5"/>
<ellipse cx="392" cy="340" rx="3.8500000000000005" ry="7.0" fill="#16132a" opacity="0.5"/>
<ellipse cx="412" cy="320" rx="3.8500000000000005" ry="7.0" fill="#16132a" opacity="0.5"/>
<g transform="translate(398,400) rotate(3)"><path d="M-25.2,0 L-25.2,-79.68 Q-25.2,-96.96000000000001 0,-96.96000000000001 Q25.2,-96.96000000000001 25.2,-79.68 L25.2,0 Z" fill="#16132a"/><circle cx="0" cy="-109.44" r="19.2" fill="#f0dcc0"/></g>
<rect width="800" height="600" filter="url(#g)" opacity="0.05"/>
</svg>
