<svg xmlns="http://www.w3.org/2000/svg" viewBox="0 0 800 600" role="img">
<filter id="g"><feTurbulence type="fractalNoise" baseFrequency="0.9" numOctaves="2" stitchTiles="stitch"/><feColorMatrix type="saturate" values="0"/></filter>
<rect width="800" height="600" fill="#16132a"/>
<g opacity="0.14"><g transform="translate(715.0,367.0) rotate(0)"><path d="M-11.34,0 L-11.34,-35.855999999999995 Q-11.34,-43.632 0,-43.632 Q11.34,-43.632 11.34,-35.855999999999995 L11.34,0 Z" fill="#5a628c"/><circle cx="0" cy="-49.248" r="8.64" fill="#5a628c"/></g>
</g><g opacity="0.14"><g transform="translate(691.0220527410554,441.738074340902) rotate(0)"><path d="M-11.34,0 L-11.34,-35.855999999999995 Q-11.34,-43.632 0,-43.632 Q11.34,-43.632 11.34,-35.855999999999995 L11.34,0 Z" fill="#5a628c"/><circle cx="0" cy="-49.248" r="8.64" fill="#5a628c"/></g>
</g><g opacity="0.14"><g transform="translate(622.7386360737624,505.09795436573273) rotate(0)"><path d="M-11.34,0 L-11.34,-35.855999999999995 Q-11.34,-43.632 0,-43.632 Q11.34,-43.632 11.34,-35.855999999999995 L11.34,0 Z" fill="#5a628c"/><circle cx="0" cy="-49.248" r="8.64" fill="#5a628c"/></g>
</g><g opacity="0.14"><g transform="translate(520.5452811950033,547.4336726994543) rotate(0)"><path d="M-11.34,0 L-11.34,-35.855999999999995 Q-11.34,-43.632 0,-43.632 Q11.34,-43.632 11.34,-35.855999999999995 L11.34,0 Z" fill="#5a628c"/><circle cx="0" cy="-49.248" r="8.64" fill="#5a628c"/></g>
</g><g opacity="0.14"><g transform="translate(400.0,562.3) rotate(0)"><path d="M-11.34,0 L-11.34,-35.855999999999995 Q-11.34,-43.632 0,-43.632 Q11.34,-43.632 11.34,-35.855999999999995 L11.34,0 Z" fill="#5a628c"/><circle cx="0" cy="-49.248" r="8.64" fill="#5a628c"/></g>
</g><g opacity="0.14"><g transform="translate(279.45471880499673,547.4336726994543) rotate(0)"><path d="M-11.34,0 L-11.34,-35.855999999999995 Q-11.34,-43.632 0,-43.632 Q11.34,-43.632 11.34,-35.855999999999995 L11.34,0 Z" fill="#5a628c"/><circle cx="0" cy="-49.248" r="8.64" fill="#5a628c"/></g>
</g><g opacity="0.14"><g transform="translate(177.26136392623755,505.0979543657328) rotate(0)"><path d="M-11.34,0 L-11.34,-35.855999999999995 Q-11.34,-43.632 0,-43.632 Q11.34,-43.632 11.34,-35.855999999999995 L11.34,0 Z" fill="#5a628c"/><circle cx="0" cy="-49.248" r="8.64" fill="#5a628c"/></g>
</g><g opacity="0.14"><g transform="translate(108.97794725894465,441.7380743409021) rotate(0)"><path d="M-11.34,0 L-11.34,-35.855999999999995 Q-11.34,-43.632 0,-43.632 Q11.34,-43.632 11.34,-35.855999999999995 L11.34,0 Z" fill="#5a628c"/><circle cx="0" cy="-49.248" r="8.64" fill="#5a628c"/></g>
</g><g opacity="0.14"><g transform="translate(85.0,367.0) rotate(0)"><path d="M-11.34,0 L-11.34,-35.855999999999995 Q-11.34,-43.632 0,-43.632 Q11.34,-43.632 11.34,-35.855999999999995 L11.34,0 Z" fill="#5a628c"/><circle cx="0" cy="-49.248" r="8.64" fill="#5a628c"/></g>
</g><g opacity="0.14"><g transform="translate(108.97794725894465,292.261925659098) rotate(0)"><path d="M-11.34,0 L-11.34,-35.855999999999995 Q-11.34,-43.632 0,-43.632 Q11.34,-43.632 11.34,-35.855999999999995 L11.34,0 Z" fill="#5a628c"/><circle cx="0" cy="-49.248" r="8.64" fill="#5a628c"/></g>
</g><g opacity="0.14"><g transform="translate(177.2613639262375,228.90204563426727) rotate(0)"><path d="M-11.34,0 L-11.34,-35.855999999999995 Q-11.34,-43.632 0,-43.632 Q11.34,-43.632 11.34,-35.855999999999995 L11.34,0 Z" fill="#5a628c"/><circle cx="0" cy="-49.248" r="8.64" fill="#5a628c"/></g>
</g><g opacity="0.14"><g transform="translate(279.45471880499656,186.56632730054574) rotate(0)"><path d="M-11.34,0 L-11.34,-35.855999999999995 Q-11.34,-43.632 0,-43.632 Q11.34,-43.632 11.34,-35.855999999999995 L11.34,0 Z" fill="#5a628c"/><circle cx="0" cy="-49.248" r="8.64" fill="#5a628c"/></g>
</g><g opacity="0.14"><g transform="translate(399.99999999999994,171.7) rotate(0)"><path d="M-11.34,0 L-11.34,-35.855999999999995 Q-11.34,-43.632 0,-43.632 Q11.34,-43.632 11.34,-35.855999999999995 L11.34,0 Z" fill="#5a628c"/><circle cx="0" cy="-49.248" r="8.64" fill="#5a628c"/></g>
</g><g opacity="0.14"><g transform="translate(520.5452811950033,186.5663273005457) rotate(0)"><path d="M-11.34,0 L-11.34,-35.855999999999995 Q-11.34,-43.632 0,-43.632 Q11.34,-43.632 11.34,-35.855999999999995 L11.34,0 Z" fill="#5a628c"/><circle cx="0" cy="-49.248" r="8.64" fill="#5a628c"/></g>
</g><g opacity="0.14"><g transform="translate(622.7386360737624,228.90204563426724) rotate(0)"><path d="M-11.34,0 L-11.34,-35.855999999999995 Q-11.34,-43.632 0,-43.632 Q11.34,-43.632 11.34,-35.855999999999995 L11.34,0 Z" fill="#5a628c"/><circle cx="0" cy="-49.248" r="8.64" fill="#5a628c"/></g>
</g><g opacity="0.14"><g transform="translate(691.0220527410552,292.26192565909787) rotate(0)"><path d="M-11.34,0 L-11.34,-35.855999999999995 Q-11.34,-43.632 0,-43.632 Q11.34,-43.632 11.34,-35.855999999999995 L11.34,0 Z" fill="#5a628c"/><circle cx="0" cy="-49.248" r="8.64" fill="#5a628c"/></g>
</g><g opacity="0.22"><g transform="translate(537.7770879963756,497.0365626981284) rotate(0)"><path d="M-10.08,0 L-10.08,-31.872 Q-10.08,-38.784 0,-38.784 Q10.08,-38.784 10.08,-31.872 L10.08,0 Z" fill="#5a628c"/><circle cx="0" cy="-43.775999999999996" r="7.68" fill="#5a628c"/></g>
</g><g opacity="0.22"><g transform="translate(412.0309077012986,521.9239402076169) rotate(0)"><path d="M-10.08,0 L-10.08,-31.872 Q-10.08,-38.784 0,-38.784 Q10.08,-38.784 10.08,-31.872 L10.08,0 Z" fill="#5a628c"/><circle cx="0" cy="-43.775999999999996" r="7.68" fill="#5a628c"/></g>
</g><g opacity="0.22"><g transform="translate(283.0610554034452,504.49572547293354) rotate(0)"><path d="M-10.08,0 L-10.08,-31.872 Q-10.08,-38.784 0,-38.784 Q10.08,-38.784 10.08,-31.872 L10.08,0 Z" fill="#5a628c"/><circle cx="0" cy="-43.775999999999996" r="7.68" fill="#5a628c"/></g>
</g><g opacity="0.22"><g transform="translate(185.4248988739864,449.4217945577529) rotate(0)"><path d="M-10.08,0 L-10.08,-31.872 Q-10.08,-38.784 0,-38.784 Q10.08,-38.784 10.08,-31.872 L10.08,0 Z" fill="#5a628c"/><circle cx="0" cy="-43.775999999999996" r="7.68" fill="#5a628c"/></g>
</g><g opacity="0.22"><g transform="translate(145.2839674070695,371.4591627748051) rotate(0)"><path d="M-10.08,0 L-10.08,-31.872 Q-10.08,-38.784 0,-38.784 Q10.08,-38.784 10.08,-31.872 L10.08,0 Z" fill="#5a628c"/><circle cx="0" cy="-43.775999999999996" r="7.68" fill="#5a628c"/></g>
</g><g opacity="0.22"><g transform="translate(173.39399117268786,291.497854350136) rotate(0)"><path d="M-10.08,0 L-10.08,-31.872 Q-10.08,-38.784 0,-38.784 Q10.08,-38.784 10.08,-31.872 L10.08,0 Z" fill="#5a628c"/><circle cx="0" cy="-43.775999999999996" r="7.68" fill="#5a628c"/></g>
</g><g opacity="0.22"><g transform="translate(262.2229120036244,230.96343730187158) rotate(0)"><path d="M-10.08,0 L-10.08,-31.872 Q-10.08,-38.784 0,-38.784 Q10.08,-38.784 10.08,-31.872 L10.08,0 Z" fill="#5a628c"/><circle cx="0" cy="-43.775999999999996" r="7.68" fill="#5a628c"/></g>
</g><g opacity="0.22"><g transform="translate(387.9690922987015,206.0760597923831) rotate(0)"><path d="M-10.08,0 L-10.08,-31.872 Q-10.08,-38.784 0,-38.784 Q10.08,-38.784 10.08,-31.872 L10.08,0 Z" fill="#5a628c"/><circle cx="0" cy="-43.775999999999996" r="7.68" fill="#5a628c"/></g>
</g><g opacity="0.22"><g transform="translate(516.9389445965547,223.50427452706646) rotate(0)"><path d="M-10.08,0 L-10.08,-31.872 Q-10.08,-38.784 0,-38.784 Q10.08,-38.784 10.08,-31.872 L10.08,0 Z" fill="#5a628c"/><circle cx="0" cy="-43.775999999999996" r="7.68" fill="#5a628c"/></g>
</g><g opacity="0.22"><g transform="translate(614.5751011260136,278.57820544224705) rotate(0)"><path d="M-10.08,0 L-10.08,-31.872 Q-10.08,-38.784 0,-38.784 Q10.08,-38.784 10.08,-31.872 L10.08,0 Z" fill="#5a628c"/><circle cx="0" cy="-43.775999999999996" r="7.68" fill="#5a628c"/></g>
</g><g opacity="0.22"><g transform="translate(654.7160325929306,356.54083722519493) rotate(0)"><path d="M-10.08,0 L-10.08,-31.872 Q-10.08,-38.784 0,-38.784 Q10.08,-38.784 10.08,-31.872 L10.08,0 Z" fill="#5a628c"/><circle cx="0" cy="-43.775999999999996" r="7.68" fill="#5a628c"/></g>
</g><g opacity="0.22"><g transform="translate(626.6060088273123,436.50214564986396) rotate(0)"><path d="M-10.08,0 L-10.08,-31.872 Q-10.08,-38.784 0,-38.784 Q10.08,-38.784 10.08,-31.872 L10.08,0 Z" fill="#5a628c"/><circle cx="0" cy="-43.775999999999996" r="7.68" fill="#5a628c"/></g>
</g><ellipse cx="400" cy="352" rx="235" ry="150" fill="#d9a441" opacity="0.10"/>
<ellipse cx="400" cy="352" rx="160" ry="102" fill="#d9a441" opacity="0.14"/>
<g transform="translate(523.6979172012177,396.08060525515674) rotate(0)"><path d="M-13.02,0 L-13.02,-41.168 Q-13.02,-50.096000000000004 0,-50.096000000000004 Q13.02,-50.096000000000004 13.02,-41.168 L13.02,0 Z" fill="#d9a441"/><circle cx="0" cy="-56.544" r="9.92" fill="#f0dcc0"/></g>
<g transform="translate(490.67238337038066,432.8783287816325) rotate(0)"><path d="M-13.02,0 L-13.02,-41.168 Q-13.02,-50.096000000000004 0,-50.096000000000004 Q13.02,-50.096000000000004 13.02,-41.168 L13.02,0 Z" fill="#d85a30"/><circle cx="0" cy="-56.544" r="9.92" fill="#f0dcc0"/></g>
<g transform="translate(433.35125763964504,454.1676008518068) rotate(0)"><path d="M-13.02,0 L-13.02,-41.168 Q-13.02,-50.096000000000004 0,-50.096000000000004 Q13.02,-50.096000000000004 13.02,-41.168 L13.02,0 Z" fill="#d85a30"/><circle cx="0" cy="-56.544" r="9.92" fill="#f0dcc0"/></g>
<g transform="translate(367.0936893578041,454.24397820703007) rotate(0)"><path d="M-13.02,0 L-13.02,-41.168 Q-13.02,-50.096000000000004 0,-50.096000000000004 Q13.02,-50.096000000000004 13.02,-41.168 L13.02,0 Z" fill="#d9a441"/><circle cx="0" cy="-56.544" r="9.92" fill="#f0dcc0"/></g>
<g transform="translate(309.65334043842734,433.0869955966501) rotate(0)"><path d="M-13.02,0 L-13.02,-41.168 Q-13.02,-50.096000000000004 0,-50.096000000000004 Q13.02,-50.096000000000004 13.02,-41.168 L13.02,0 Z" fill="#d85a30"/><circle cx="0" cy="-56.544" r="9.92" fill="#f0dcc0"/></g>
<g transform="translate(276.42130598742347,396.3656494253976) rotate(0)"><path d="M-13.02,0 L-13.02,-41.168 Q-13.02,-50.096000000000004 0,-50.096000000000004 Q13.02,-50.096000000000004 13.02,-41.168 L13.02,0 Z" fill="#d85a30"/><circle cx="0" cy="-56.544" r="9.92" fill="#f0dcc0"/></g>
<g transform="translate(276.3020827987823,353.9193947448433) rotate(0)"><path d="M-13.02,0 L-13.02,-41.168 Q-13.02,-50.096000000000004 0,-50.096000000000004 Q13.02,-50.096000000000004 13.02,-41.168 L13.02,0 Z" fill="#d9a441"/><circle cx="0" cy="-56.544" r="9.92" fill="#f0dcc0"/></g>
<g transform="translate(309.32761662961934,317.1216712183675) rotate(0)"><path d="M-13.02,0 L-13.02,-41.168 Q-13.02,-50.096000000000004 0,-50.096000000000004 Q13.02,-50.096000000000004 13.02,-41.168 L13.02,0 Z" fill="#d85a30"/><circle cx="0" cy="-56.544" r="9.92" fill="#f0dcc0"/></g>
<g transform="translate(366.6487423603549,295.8323991481932) rotate(0)"><path d="M-13.02,0 L-13.02,-41.168 Q-13.02,-50.096000000000004 0,-50.096000000000004 Q13.02,-50.096000000000004 13.02,-41.168 L13.02,0 Z" fill="#d85a30"/><circle cx="0" cy="-56.544" r="9.92" fill="#f0dcc0"/></g>
<g transform="translate(432.9063106421958,295.75602179296993) rotate(0)"><path d="M-13.02,0 L-13.02,-41.168 Q-13.02,-50.096000000000004 0,-50.096000000000004 Q13.02,-50.096000000000004 13.02,-41.168 L13.02,0 Z" fill="#d9a441"/><circle cx="0" cy="-56.544" r="9.92" fill="#f0dcc0"/></g>
<g transform="translate(490.34665956157266,316.9130044033499) rotate(0)"><path d="M-13.02,0 L-13.02,-41.168 Q-13.02,-50.096000000000004 0,-50.096000000000004 Q13.02,-50.096000000000004 13.02,-41.168 L13.02,0 Z" fill="#d85a30"/><circle cx="0" cy="-56.544" r="9.92" fill="#f0dcc0"/></g>
<g transform="translate(523.5786940125765,353.63435057460237) rotate(0)"><path d="M-13.02,0 L-13.02,-41.168 Q-13.02,-50.096000000000004 0,-50.096000000000004 Q13.02,-50.096000000000004 13.02,-41.168 L13.02,0 Z" fill="#d85a30"/><circle cx="0" cy="-56.544" r="9.92" fill="#f0dcc0"/></g>
<ellipse cx="400" cy="368" rx="34" ry="10" fill="#3a2c20"/>
<path d="M400,304 Q424,330 412,356 Q406,366 400,366 Q394,366 388,356 Q376,330 400,304 Z" fill="#d85a30"/>
<path d="M400,322 Q412,338 406,354 Q400,362 394,354 Q388,338 400,322 Z" fill="#d9a441"/>
<rect width="800" height="600" filter="url(#g)" opacity="0.05"/>
</svg>
