<svg xmlns="http://www.w3.org/2000/svg" viewBox="0 0 800 600" role="img">
<filter id="g"><feTurbulence type="fractalNoise" baseFrequency="0.9" numOctaves="2" stitchTiles="stitch"/><feColorMatrix type="saturate" values="0"/></filter>
<rect width="800" height="600" fill="#faf8f2"/>
<rect x="0" y="250" width="800" height="350" fill="#efe9da"/>
<circle cx="42" cy="268" r="3.2" fill="#16132a" opacity="0.22"/>
<circle cx="73" cy="268" r="3.2" fill="#16132a" opacity="0.22"/>
<circle cx="103" cy="268" r="3.2" fill="#16132a" opacity="0.22"/>
<circle cx="134" cy="268" r="3.2" fill="#16132a" opacity="0.22"/>
<circle cx="160" cy="268" r="3.2" fill="#16132a" opacity="0.22"/>
<circle cx="192" cy="268" r="3.2" fill="#16132a" opacity="0.22"/>
<circle cx="204" cy="268" r="3.2" fill="#16132a" opacity="0.22"/>
<circle cx="241" cy="268" r="3.2" fill="#16132a" opacity="0.22"/>
<circle cx="278" cy="268" r="3.2" fill="#16132a" opacity="0.22"/>
<circle cx="302" cy="268" r="3.2" fill="#16132a" opacity="0.22"/>
<circle cx="335" cy="268" r="3.2" fill="#16132a" opacity="0.22"/>
<circle cx="350" cy="268" r="3.2" fill="#16132a" opacity="0.22"/>
<circle cx="385" cy="268" r="3.2" fill="#16132a" opacity="0.22"/>
<circle cx="410" cy="268" r="3.2" fill="#16132a" opacity="0.22"/>
<circle cx="444" cy="268" r="3.2" fill="#16132a" opacity="0.22"/>
<circle cx="473" cy="268" r="3.2" fill="#16132a" opacity="0.22"/>
<circle cx="492" cy="268" r="3.2" fill="#16132a" opacity="0.22"/>
<circle cx="525" cy="268" r="3.2" fill="#16132a" opacity="0.22"/>
<circle cx="554" cy="268" r="3.2" fill="#16132a" opacity="0.22"/>
<circle cx="595" cy="268" r="3.2" fill="#16132a" opacity="0.22"/>
<circle cx="621" cy="268" r="3.2" fill="#16132a" opacity="0.22"/>
<circle cx="639" cy="268" r="3.2" fill="#16132a" opacity="0.22"/>
<circle cx="679" cy="268" r="3.2" fill="#16132a" opacity="0.22"/>
<circle cx="696" cy="268" r="3.2" fill="#16132a" opacity="0.22"/>
<circle cx="733" cy="268" r="3.2" fill="#16132a" opacity="0.22"/>
<circle cx="753" cy="268" r="3.2" fill="#16132a" opacity="0.22"/>
<circle cx="31" cy="302" r="4.7" fill="#16132a" opacity="0.28"/>
<circle cx="78" cy="302" r="4.7" fill="#16132a" opacity="0.28"/>
<circle cx="97" cy="302" r="4.7" fill="#16132a" opacity="0.28"/>
<circle cx="129" cy="302" r="4.7" fill="#16132a" opacity="0.28"/>
<circle cx="174" cy="302" r="4.7" fill="#16132a" opacity="0.28"/>
<circle cx="203" cy="302" r="4.7" fill="#16132a" opacity="0.28"/>
<circle cx="224" cy="302" r="4.7" fill="#16132a" opacity="0.28"/>
<circle cx="267" cy="302" r="4.7" fill="#16132a" opacity="0.28"/>
<circle cx="291" cy="302" r="4.7" fill="#16132a" opacity="0.28"/>
<circle cx="325" cy="302" r="4.7" fill="#16132a" opacity="0.28"/>
<circle cx="348" cy="302" r="4.7" fill="#16132a" opacity="0.28"/>
<circle cx="392" cy="302" r="4.7" fill="#16132a" opacity="0.28"/>
<circle cx="419" cy="302" r="4.7" fill="#16132a" opacity="0.28"/>
<circle cx="455" cy="302" r="4.7" fill="#16132a" opacity="0.28"/>
<circle cx="485" cy="302" r="4.7" fill="#16132a" opacity="0.28"/>
<circle cx="506" cy="302" r="4.7" fill="#16132a" opacity="0.28"/>
<circle cx="538" cy="302" r="4.7" fill="#16132a" opacity="0.28"/>
<circle cx="566" cy="302" r="4.7" fill="#16132a" opacity="0.28"/>
<circle cx="597" cy="302" r="4.7" fill="#16132a" opacity="0.28"/>
<circle cx="627" cy="302" r="4.7" fill="#16132a" opacity="0.28"/>
<circle cx="663" cy="302" r="4.7" fill="#16132a" opacity="0.28"/>
<circle cx="699" cy="302" r="4.7" fill="#16132a" opacity="0.28"/>
<circle cx="720" cy="302" r="4.7" fill="#16132a" opacity="0.28"/>
<circle cx="763" cy="302" r="4.7" fill="#16132a" opacity="0.28"/>
<circle cx="37" cy="336" r="6.2" fill="#16132a" opacity="0.33"/>
<circle cx="71" cy="336" r="6.2" fill="#16132a" opacity="0.33"/>
<circle cx="114" cy="336" r="6.2" fill="#16132a" opacity="0.33"/>
<circle cx="143" cy="336" r="6.2" fill="#16132a" opacity="0.33"/>
<circle cx="174" cy="336" r="6.2" fill="#16132a" opacity="0.33"/>
<circle cx="211" cy="336" r="6.2" fill="#16132a" opacity="0.33"/>
<circle cx="249" cy="336" r="6.2" fill="#16132a" opacity="0.33"/>
<circle cx="272" cy="336" r="6.2" fill="#16132a" opacity="0.33"/>
<circle cx="323" cy="336" r="6.2" fill="#16132a" opacity="0.33"/>
<circle cx="340" cy="336" r="6.2" fill="#16132a" opacity="0.33"/>
<circle cx="387" cy="336" r="6.2" fill="#16132a" opacity="0.33"/>
<circle cx="423" cy="336" r="6.2" fill="#16132a" opacity="0.33"/>
<circle cx="443" cy="336" r="6.2" fill="#16132a" opacity="0.33"/>
<circle cx="491" cy="336" r="6.2" fill="#16132a" opacity="0.33"/>
<circle cx="518" cy="336" r="6.2" fill="#16132a" opacity="0.33"/>
<circle cx="556" cy="336" r="6.2" fill="#16132a" opacity="0.33"/>
<circle cx="580" cy="336" r="6.2" fill="#16132a" opacity="0.33"/>
<circle cx="615" cy="336" r="6.2" fill="#16132a" opacity="0.33"/>
<circle cx="651" cy="336" r="6.2" fill="#16132a" opacity="0.33"/>
<circle cx="700" cy="336" r="6.2" fill="#16132a" opacity="0.33"/>
<circle cx="720" cy="336" r="6.2" fill="#16132a" opacity="0.33"/>
<circle cx="765" cy="336" r="6.2" fill="#16132a" opacity="0.33"/>
<circle cx="48" cy="370" r="7.7" fill="#16132a" opacity="0.39"/>
<circle cx="86" cy="370" r="7.7" fill="#16132a" opacity="0.39"/>
<circle cx="113" cy="370" r="7.7" fill="#16132a" opacity="0.39"/>
<circle cx="151" cy="370" r="7.7" fill="#16132a" opacity="0.39"/>
<circle cx="192" cy="370" r="7.7" fill="#16132a" opacity="0.39"/>
<circle cx="234" cy="370" r="7.7" fill="#16132a" opacity="0.39"/>
<circle cx="260" cy="370" r="7.7" fill="#16132a" opacity="0.39"/>
<circle cx="310" cy="370" r="7.7" fill="#16132a" opacity="0.39"/>
<circle cx="349" cy="370" r="7.7" fill="#16132a" opacity="0.39"/>
<circle cx="388" cy="370" r="7.7" fill="#16132a" opacity="0.39"/>
<circle cx="411" cy="370" r="7.7" fill="#16132a" opacity="0.39"/>
<circle cx="465" cy="370" r="7.7" fill="#16132a" opacity="0.39"/>
<circle cx="487" cy="370" r="7.7" fill="#16132a" opacity="0.39"/>
<circle cx="530" cy="370" r="7.7" fill="#16132a" opacity="0.39"/>
<circle cx="573" cy="370" r="7.7" fill="#16132a" opacity="0.39"/>
<circle cx="616" cy="370" r="7.7" fill="#16132a" opacity="0.39"/>
<circle cx="643" cy="370" r="7.7" fill="#16132a" opacity="0.39"/>
<circle cx="692" cy="370" r="7.7" fill="#16132a" opacity="0.39"/>
<circle cx="723" cy="370" r="7.7" fill="#16132a" opacity="0.39"/>
<circle cx="757" cy="370" r="7.7" fill="#16132a" opacity="0.39"/>
<circle cx="37" cy="404" r="9.2" fill="#16132a" opacity="0.44"/>
<circle cx="77" cy="404" r="9.2" fill="#16132a" opacity="0.44"/>
<circle cx="117" cy="404" r="9.2" fill="#16132a" opacity="0.44"/>
<circle cx="161" cy="404" r="9.2" fill="#16132a" opacity="0.44"/>
<circle cx="213" cy="404" r="9.2" fill="#16132a" opacity="0.44"/>
<circle cx="261" cy="404" r="9.2" fill="#16132a" opacity="0.44"/>
<circle cx="288" cy="404" r="9.2" fill="#16132a" opacity="0.44"/>
<circle cx="328" cy="404" r="9.2" fill="#16132a" opacity="0.44"/>
<circle cx="388" cy="404" r="9.2" fill="#16132a" opacity="0.44"/>
<circle cx="422" cy="404" r="9.2" fill="#16132a" opacity="0.44"/>
<circle cx="462" cy="404" r="9.2" fill="#16132a" opacity="0.44"/>
<circle cx="501" cy="404" r="9.2" fill="#16132a" opacity="0.44"/>
<circle cx="550" cy="404" r="9.2" fill="#16132a" opacity="0.44"/>
<circle cx="596" cy="404" r="9.2" fill="#16132a" opacity="0.44"/>
<circle cx="632" cy="404" r="9.2" fill="#16132a" opacity="0.44"/>
<circle cx="674" cy="404" r="9.2" fill="#16132a" opacity="0.44"/>
<circle cx="710" cy="404" r="9.2" fill="#16132a" opacity="0.44"/>
<circle cx="767" cy="404" r="9.2" fill="#16132a" opacity="0.44"/>
<circle cx="32" cy="438" r="10.7" fill="#16132a" opacity="0.49"/>
<circle cx="88" cy="438" r="10.7" fill="#16132a" opacity="0.49"/>
<circle cx="142" cy="438" r="10.7" fill="#16132a" opacity="0.49"/>
<circle cx="177" cy="438" r="10.7" fill="#16132a" opacity="0.49"/>
<circle cx="236" cy="438" r="10.7" fill="#16132a" opacity="0.49"/>
<circle cx="288" cy="438" r="10.7" fill="#16132a" opacity="0.49"/>
<circle cx="330" cy="438" r="10.7" fill="#16132a" opacity="0.49"/>
<circle cx="381" cy="438" r="10.7" fill="#16132a" opacity="0.49"/>
<circle cx="417" cy="438" r="10.7" fill="#16132a" opacity="0.49"/>
<circle cx="471" cy="438" r="10.7" fill="#16132a" opacity="0.49"/>
<circle cx="514" cy="438" r="10.7" fill="#16132a" opacity="0.49"/>
<circle cx="574" cy="438" r="10.7" fill="#16132a" opacity="0.49"/>
<circle cx="612" cy="438" r="10.7" fill="#16132a" opacity="0.49"/>
<circle cx="663" cy="438" r="10.7" fill="#16132a" opacity="0.49"/>
<circle cx="721" cy="438" r="10.7" fill="#16132a" opacity="0.49"/>
<circle cx="766" cy="438" r="10.7" fill="#16132a" opacity="0.49"/>
<circle cx="49" cy="472" r="12.2" fill="#16132a" opacity="0.55"/>
<circle cx="371" cy="472" r="12.2" fill="#16132a" opacity="0.55"/>
<circle cx="421" cy="472" r="12.2" fill="#16132a" opacity="0.55"/>
<circle cx="481" cy="472" r="12.2" fill="#16132a" opacity="0.55"/>
<circle cx="547" cy="472" r="12.2" fill="#16132a" opacity="0.55"/>
<circle cx="602" cy="472" r="12.2" fill="#16132a" opacity="0.55"/>
<circle cx="652" cy="472" r="12.2" fill="#16132a" opacity="0.55"/>
<circle cx="705" cy="472" r="12.2" fill="#16132a" opacity="0.55"/>
<circle cx="757" cy="472" r="12.2" fill="#16132a" opacity="0.55"/>
<circle cx="33" cy="506" r="13.7" fill="#16132a" opacity="0.60"/>
<circle cx="372" cy="506" r="13.7" fill="#16132a" opacity="0.60"/>
<circle cx="438" cy="506" r="13.7" fill="#16132a" opacity="0.60"/>
<circle cx="502" cy="506" r="13.7" fill="#16132a" opacity="0.60"/>
<circle cx="567" cy="506" r="13.7" fill="#16132a" opacity="0.60"/>
<circle cx="634" cy="506" r="13.7" fill="#16132a" opacity="0.60"/>
<circle cx="692" cy="506" r="13.7" fill="#16132a" opacity="0.60"/>
<circle cx="764" cy="506" r="13.7" fill="#16132a" opacity="0.60"/>
<circle cx="36" cy="540" r="15.2" fill="#16132a" opacity="0.66"/>
<circle cx="356" cy="540" r="15.2" fill="#16132a" opacity="0.66"/>
<circle cx="448" cy="540" r="15.2" fill="#16132a" opacity="0.66"/>
<circle cx="523" cy="540" r="15.2" fill="#16132a" opacity="0.66"/>
<circle cx="601" cy="540" r="15.2" fill="#16132a" opacity="0.66"/>
<circle cx="671" cy="540" r="15.2" fill="#16132a" opacity="0.66"/>
<circle cx="761" cy="540" r="15.2" fill="#16132a" opacity="0.66"/>
<g transform="translate(200,545)"><path d="M-52,0 L-52,-165 Q-52,-210 0,-210 Q52,-210 52,-165 L52,0 Z" fill="#d85a30"/><circle cx="0" cy="-232" r="40" fill="#f0dcc0"/><path d="M-40,-252 Q0,-286 40,-252 L40,-238 Q0,-262 -40,-238 Z" fill="#16132a"/><path d="M52,-150 Q80,-120 74,-86" stroke="#d85a30" stroke-width="20" fill="none" stroke-linecap="round"/></g>
<rect width="800" height="600" filter="url(#g)" opacity="0.05"/>
</svg>
