<svg xmlns="http://www.w3.org/2000/svg" viewBox="0 0 800 600" role="img">
<filter id="g"><feTurbulence type="fractalNoise" baseFrequency="0.9" numOctaves="2" stitchTiles="stitch"/><feColorMatrix type="saturate" values="0"/></filter>
<rect width="800" height="600" fill="#faf8f2"/>
<path d="M0,600 L0,505 Q200,472 420,498 Q640,522 800,492 L800,600 Z" fill="#0f6e56" opacity="0.4"/>
<line x1="114" y1="540" x2="114" y2="290" stroke="#2c3555" stroke-width="8"/>
<line x1="166" y1="540" x2="166" y2="290" stroke="#2c3555" stroke-width="8"/>
<line x1="114" y1="515" x2="166" y2="515" stroke="#2c3555" stroke-width="6"/>
<line x1="114" y1="465" x2="166" y2="465" stroke="#2c3555" stroke-width="6"/>
<line x1="114" y1="415" x2="166" y2="415" stroke="#2c3555" stroke-width="6"/>
<line x1="114" y1="365" x2="166" y2="365" stroke="#2c3555" stroke-width="6"/>
<line x1="114" y1="315" x2="166" y2="315" stroke="#2c3555" stroke-width="6"/>
<g transform="translate(140,410.0) rotate(-8)"><path d="M-20,0 L-20,-64 Q-20,-84 0,-84 Q20,-84 20,-64 L20,0 Z" fill="#d85a30"/><circle cx="10" cy="-96" r="15" fill="#f0dcc0"/></g>
<path d="M158,310.0 q14,-12 24,-24" stroke="#d85a30" stroke-width="4" fill="none" stroke-linecap="round" opacity="0.6"/>
<line x1="304" y1="540" x2="304" y2="190" stroke="#2c3555" stroke-width="8"/>
<line x1="356" y1="540" x2="356" y2="190" stroke="#2c3555" stroke-width="8"/>
<line x1="304" y1="515" x2="356" y2="515" stroke="#2c3555" stroke-width="6"/>
<line x1="304" y1="465" x2="356" y2="465" stroke="#2c3555" stroke-width="6"/>
<line x1="304" y1="415" x2="356" y2="415" stroke="#2c3555" stroke-width="6"/>
<line x1="304" y1="365" x2="356" y2="365" stroke="#2c3555" stroke-width="6"/>
<line x1="304" y1="315" x2="356" y2="315" stroke="#2c3555" stroke-width="6"/>
<line x1="304" y1="265" x2="356" y2="265" stroke="#2c3555" stroke-width="6"/>
<line x1="304" y1="215" x2="356" y2="215" stroke="#2c3555" stroke-width="6"/>
<g transform="translate(330,358.0) rotate(-8)"><path d="M-20,0 L-20,-64 Q-20,-84 0,-84 Q20,-84 20,-64 L20,0 Z" fill="#16132a"/><circle cx="10" cy="-96" r="15" fill="#f0dcc0"/></g>
<path d="M348,258.0 q14,-12 24,-24" stroke="#16132a" stroke-width="4" fill="none" stroke-linecap="round" opacity="0.6"/>
<line x1="504" y1="540" x2="504" y2="100" stroke="#2c3555" stroke-width="8"/>
<line x1="556" y1="540" x2="556" y2="100" stroke="#2c3555" stroke-width="8"/>
<line x1="504" y1="516" x2="556" y2="516" stroke="#2c3555" stroke-width="6"/>
<line x1="504" y1="467" x2="556" y2="467" stroke="#2c3555" stroke-width="6"/>
<line x1="504" y1="418" x2="556" y2="418" stroke="#2c3555" stroke-width="6"/>
<line x1="504" y1="369" x2="556" y2="369" stroke="#2c3555" stroke-width="6"/>
<line x1="504" y1="320" x2="556" y2="320" stroke="#2c3555" stroke-width="6"/>
<line x1="504" y1="271" x2="556" y2="271" stroke="#2c3555" stroke-width="6"/>
<line x1="504" y1="222" x2="556" y2="222" stroke="#2c3555" stroke-width="6"/>
<line x1="504" y1="173" x2="556" y2="173" stroke="#2c3555" stroke-width="6"/>
<line x1="504" y1="124" x2="556" y2="124" stroke="#2c3555" stroke-width="6"/>
<g transform="translate(530,311.2) rotate(-8)"><path d="M-20,0 L-20,-64 Q-20,-84 0,-84 Q20,-84 20,-64 L20,0 Z" fill="#d9a441"/><circle cx="10" cy="-96" r="15" fill="#f0dcc0"/></g>
<path d="M548,211.2 q14,-12 24,-24" stroke="#d9a441" stroke-width="4" fill="none" stroke-linecap="round" opacity="0.6"/>
<line x1="674" y1="540" x2="674" y2="350" stroke="#2c3555" stroke-width="8"/>
<line x1="726" y1="540" x2="726" y2="350" stroke="#2c3555" stroke-width="8"/>
<line x1="674" y1="516" x2="726" y2="516" stroke="#2c3555" stroke-width="6"/>
<line x1="674" y1="469" x2="726" y2="469" stroke="#2c3555" stroke-width="6"/>
<line x1="674" y1="421" x2="726" y2="421" stroke="#2c3555" stroke-width="6"/>
<line x1="674" y1="374" x2="726" y2="374" stroke="#2c3555" stroke-width="6"/>
<g transform="translate(700,441.2) rotate(-8)"><path d="M-20,0 L-20,-64 Q-20,-84 0,-84 Q20,-84 20,-64 L20,0 Z" fill="#0f6e56"/><circle cx="10" cy="-96" r="15" fill="#f0dcc0"/></g>
<path d="M718,341.2 q14,-12 24,-24" stroke="#0f6e56" stroke-width="4" fill="none" stroke-linecap="round" opacity="0.6"/>
<rect width="800" height="600" filter="url(#g)" opacity="0.05"/>
</svg>
