<svg xmlns="http://www.w3.org/2000/svg" viewBox="0 0 800 600" role="img">
<filter id="g"><feTurbulence type="fractalNoise" baseFrequency="0.9" numOctaves="2" stitchTiles="stitch"/><feColorMatrix type="saturate" values="0"/></filter>
<rect width="800" height="600" fill="#faf8f2"/>
<ellipse cx="400" cy="392" rx="225" ry="95" fill="#c9b183"/>
<ellipse cx="400" cy="380" rx="225" ry="95" fill="#dcc79b"/>
<g transform="translate(655,456) scale(1.04)"><path d="M-40,60 L-40,-70 Q-40,-105 0,-105 Q40,-105 40,-70 L40,60 Z" fill="#16132a"/><circle cx="0" cy="-124" r="27" fill="#f0dcc0"/><path d="M40,-70 Q66,-92 52,-118" stroke="#16132a" stroke-width="13" fill="none" stroke-linecap="round"/><g transform="translate(52,-132) rotate(8)"><ellipse cx="0" cy="0" rx="21" ry="27" fill="#faf8f2" stroke="#d9a441" stroke-width="3"/><path d="M-9,-4 Q-5,-8 -1,-4 M3,-4 Q7,-8 11,-4" stroke="#16132a" stroke-width="2.4" fill="none"/><path d="M-8,10 Q1,15 10,10" stroke="#16132a" stroke-width="2.4" fill="none"/></g></g>
<g transform="translate(400,540) scale(1.12)"><path d="M-40,60 L-40,-70 Q-40,-105 0,-105 Q40,-105 40,-70 L40,60 Z" fill="#0f6e56"/><circle cx="0" cy="-124" r="27" fill="#f0dcc0"/><path d="M40,-70 Q66,-92 52,-118" stroke="#0f6e56" stroke-width="13" fill="none" stroke-linecap="round"/><g transform="translate(52,-132) rotate(8)"><ellipse cx="0" cy="0" rx="21" ry="27" fill="#faf8f2" stroke="#d9a441" stroke-width="3"/><path d="M-9,-4 Q-5,-8 -1,-4 M3,-4 Q7,-8 11,-4" stroke="#16132a" stroke-width="2.4" fill="none"/><path d="M-8,10 Q1,15 10,10" stroke="#16132a" stroke-width="2.4" fill="none"/></g></g>
<g transform="translate(145,456) scale(1.04)"><path d="M-40,60 L-40,-70 Q-40,-105 0,-105 Q40,-105 40,-70 L40,60 Z" fill="#2c3555"/><circle cx="0" cy="-124" r="27" fill="#f0dcc0"/><path d="M40,-70 Q66,-92 52,-118" stroke="#2c3555" stroke-width="13" fill="none" stroke-linecap="round"/><g transform="translate(52,-132) rotate(8)"><ellipse cx="0" cy="0" rx="21" ry="27" fill="#faf8f2" stroke="#d9a441" stroke-width="3"/><path d="M-9,-4 Q-5,-8 -1,-4 M3,-4 Q7,-8 11,-4" stroke="#16132a" stroke-width="2.4" fill="none"/><path d="M-8,10 Q1,15 10,10" stroke="#16132a" stroke-width="2.4" fill="none"/></g></g>
<g transform="translate(145,288) scale(0.90)"><path d="M-40,60 L-40,-70 Q-40,-105 0,-105 Q40,-105 40,-70 L40,60 Z" fill="#d85a30"/><circle cx="0" cy="-124" r="27" fill="#f0dcc0"/><path d="M40,-70 Q66,-92 52,-118" stroke="#d85a30" stroke-width="13" fill="none" stroke-linecap="round"/><g transform="translate(52,-132) rotate(8)"><ellipse cx="0" cy="0" rx="21" ry="27" fill="#faf8f2" stroke="#d9a441" stroke-width="3"/><path d="M-9,-4 Q-5,-8 -1,-4 M3,-4 Q7,-8 11,-4" stroke="#16132a" stroke-width="2.4" fill="none"/><path d="M-8,10 Q1,15 10,10" stroke="#16132a" stroke-width="2.4" fill="none"/></g></g>
<g transform="translate(400,204) scale(0.82)"><path d="M-40,60 L-40,-70 Q-40,-105 0,-105 Q40,-105 40,-70 L40,60 Z" fill="#16132a"/><circle cx="0" cy="-124" r="27" fill="#f0dcc0"/><path d="M40,-70 Q66,-92 52,-118" stroke="#16132a" stroke-width="13" fill="none" stroke-linecap="round"/><g transform="translate(52,-132) rotate(8)"><ellipse cx="0" cy="0" rx="21" ry="27" fill="#faf8f2" stroke="#d9a441" stroke-width="3"/><path d="M-9,-4 Q-5,-8 -1,-4 M3,-4 Q7,-8 11,-4" stroke="#16132a" stroke-width="2.4" fill="none"/><path d="M-8,10 Q1,15 10,10" stroke="#16132a" stroke-width="2.4" fill="none"/></g></g>
<g transform="translate(655,288) scale(0.90)"><path d="M-40,60 L-40,-70 Q-40,-105 0,-105 Q40,-105 40,-70 L40,60 Z" fill="#0f6e56"/><circle cx="0" cy="-124" r="27" fill="#f0dcc0"/><path d="M40,-70 Q66,-92 52,-118" stroke="#0f6e56" stroke-width="13" fill="none" stroke-linecap="round"/><g transform="translate(52,-132) rotate(8)"><ellipse cx="0" cy="0" rx="21" ry="27" fill="#faf8f2" stroke="#d9a441" stroke-width="3"/><path d="M-9,-4 Q-5,-8 -1,-4 M3,-4 Q7,-8 11,-4" stroke="#16132a" stroke-width="2.4" fill="none"/><path d="M-8,10 Q1,15 10,10" stroke="#16132a" stroke-width="2.4" fill="none"/></g></g>
<rect width="800" height="600" filter="url(#g)" opacity="0.05"/>
</svg>
