<svg xmlns="http://www.w3.org/2000/svg" viewBox="0 0 200 200" width="200" height="200" role="img" aria-label="職場：対話するチーム">
  <circle cx="100" cy="100" r="92" fill="#dff0ea"/>
  <rect x="50" y="44" width="34" height="24" rx="8" fill="#d9a441"/>
  <polygon points="58,66 58,80 72,66" fill="#d9a441"/>
  <rect x="116" y="40" width="34" height="24" rx="8" fill="#0f6e56"/>
  <polygon points="142,62 142,76 128,62" fill="#0f6e56"/>
  <circle cx="100" cy="92" r="13" fill="#243a63"/>
  <path d="M82,122 Q82,104 100,104 Q118,104 118,122 Z" fill="#243a63"/>
  <circle cx="58" cy="104" r="12" fill="#d85a30"/>
  <path d="M42,132 Q42,115 58,115 Q74,115 74,132 Z" fill="#d85a30"/>
  <circle cx="142" cy="104" r="12" fill="#3c3489"/>
  <path d="M126,132 Q126,115 142,115 Q158,115 158,132 Z" fill="#3c3489"/>
  <ellipse cx="100" cy="142" rx="56" ry="18" fill="#e7d7b6" stroke="#c99a3a" stroke-width="2.5"/>
  <ellipse cx="100" cy="138" rx="42" ry="12" fill="#f3e9d2"/>
</svg>
